<svg xmlns="http://www.w3.org/2000/svg" viewBox="0 0 36 36" width="32" height="32">
  <!-- Brain outline -->
  <path d="M18 4c-3 0-5.5 2-6.5 4.5-1.5-0.5-3.5 0-5 1.5c-2 2-2 4.5-1.5 6.5-1.2 1.2-2 3-2 5s0.8 3.8 2 5c-0.5 2.5 0.5 5 2.5 7s4.5 3 7 2.5c0.8 1.5 2.5 2.5 4 2.5h2c1.5 0 3.2-1 4-2.5 2.5 0.5 5-0.5 7-2.5s3-4.5 2.5-7c1.2-1.2 2-3 2-5s-0.8-3.8-2-5c0.5-2-0.5-4.5-2.5-6.5s-4.5-3-7-2.5c-1-2.5-3.5-4.5-6.5-4.5z" 
        fill="none" 
        stroke="#dc2626" 
        stroke-width="2.5"/>
  
  <!-- Download arrow -->
  <g fill="#dc2626">
    <!-- Arrow shaft -->
    <rect x="17" y="12" width="2" height="8"/>
    <!-- Arrow head -->
    <path d="M18 22l-3-3h2v-1h2v1h2z"/>
  </g>
</svg>
